<svg version="1.1" xmlns="http://www.w3.org/2000/svg" style="display: block;" viewBox="0 0 2048 2048" width="1000" height="1000" preserveAspectRatio="none">
<path transform="translate(0,0)" fill="rgb(23,23,23)" d="M 893.023 804.475 L 893.82 804.428 C 1005.81 798.704 1085.1 872.493 1091.56 983.675 C 1098.66 1105.89 1033.5 1199.37 906.248 1204.48 C 862.065 1208.08 806.664 1191.37 773.199 1161.77 C 734.315 1127.88 712.993 1080.63 709.606 1029.25 C 701.409 904.939 764.492 812.475 893.023 804.475 z M 909.621 1164.13 C 1013.88 1156.51 1049.5 1076.91 1041.97 981.352 C 1035.22 895.856 982.302 839.671 893.953 844.476 C 792.383 851.232 750.827 935.896 759.346 1027.86 C 763.08 1068.18 778.297 1106.91 809.996 1133.92 C 841.454 1160.07 870.442 1164.8 909.621 1164.13 z"/>
<path transform="translate(0,0)" fill="rgb(23,23,23)" d="M 1173.57 810.449 C 1208.54 809.211 1246.39 810.73 1280.43 810.181 C 1407.41 808.134 1503.73 863.35 1499.06 1002.09 C 1497.11 1059.97 1484.44 1099.52 1442.18 1141.19 C 1385.48 1194.44 1323.86 1197.98 1251.62 1197.89 C 1225.49 1197.77 1199.36 1197.83 1173.23 1198.06 L 1173.27 938.865 L 1173.19 858.203 C 1173.16 843.725 1172.62 824.481 1173.57 810.449 z M 1220.21 1157.4 C 1284.83 1157.65 1357.69 1164.48 1407.92 1114.76 C 1440.6 1081.94 1449.97 1045.2 1450.25 999.572 C 1450.48 961.435 1441.36 919.868 1413.17 892.275 C 1360.98 841.199 1285.4 852.486 1220.14 850.726 L 1220.21 1157.4 z"/>
<path transform="translate(0,0)" fill="rgb(254,183,0)" d="M 640.62 796.172 C 641.897 796.183 641.183 796.017 642.574 797.183 C 643.591 823.259 642.673 853.159 642.897 879.783 C 633.584 885.759 616.495 894.118 606.343 899.402 L 541.266 933.294 C 480.654 964.931 416.69 999.555 355.675 1029.74 L 642.532 1180.91 C 643.899 1204.8 642.708 1241.47 642.756 1266.22 C 627.573 1258.77 610.511 1249.13 595.5 1241.01 C 574.536 1230.28 550.642 1216.6 529.714 1205.24 L 391.89 1130.32 L 320.191 1091.47 C 308.916 1085.38 289.354 1075.61 279.863 1068.77 C 278.515 1052.36 278.589 1005.95 279.569 989.325 C 289.058 982.445 315.616 969.292 327.122 963.106 L 433.993 905.964 L 578.291 828.514 C 595.881 819.214 623.358 802.812 640.62 796.172 z"/>
<path transform="translate(0,0)" fill="rgb(23,23,23)" d="M 1584.8 810.501 C 1651 810.104 1720.15 811.796 1785.96 810.193 L 1786.03 850.729 C 1772.44 849.381 1745.14 850.156 1730.78 850.172 L 1626.87 850.318 L 1626.84 981.224 C 1652.9 981.613 1678.95 981.724 1705.01 981.557 C 1727.49 981.564 1751.46 981.979 1773.84 981.218 L 1773.89 1020.19 C 1725.6 1019.37 1675.25 1020.1 1626.84 1020.15 L 1626.88 1059.25 L 1626.81 1158.09 L 1791.15 1158.11 L 1791.22 1197.99 C 1765.88 1197.17 1738.18 1197.65 1712.64 1197.64 L 1581.21 1197.8 C 1581.12 1158.41 1579.14 817.247 1582.18 811.115 L 1584.8 810.501 z"/>
</svg>